<svg id="Contours" xmlns="http://www.w3.org/2000/svg" viewBox="0 0 458.86 460.03">
  <title>logo_dark</title>
  <path d="M456.64,76.6q1.2,74.4,2.2,149c.8,51-23,100.4-57.7,137.8s-79.6,64.1-126.2,84.8c-15.6,6.9-32.2,13.4-49.2,11.5-11.7-1.3-22.6-6.5-33.2-11.9-42.2-21.4-83.3-46-117.4-78.7s-61.2-74.3-70.5-120.6C-1,221-.26,192.6.54,164.5c1-35.7,1.9-71.5,2.9-107.3.1-2.6.4-5.7,2.5-7.2,1.6-1,3.6-.9,5.5-.7a255.31,255.31,0,0,1,104.9,34.4c8.2,4.9,17.7-3.4,23.9-10.6a391.42,391.42,0,0,1,75.9-68.4c3.3-2.4,7-4.7,11.1-4.7s7.7,2.5,11,4.8A523.15,523.15,0,0,1,328,85.7c5.5,6.1,15.5,2.2,22.8-1.7A218.52,218.52,0,0,1,446,58.5c7.8-.2,10.5,10.3,10.6,18.1M241.14,44.1c-2.5-2.2-5.2-4.5-8.5-5.3-5.7-1.2-11.1,2.7-15.6,6.4a435.42,435.42,0,0,0-56.6,56.1c-1.2,1.4-2.4,2.8-2.7,4.6-.6,3.3,1.8,6.4,4.1,8.9,21.7,24.4,37.6,54.7,40.8,87.1s-7.5,66.9-31.7,88.8c-4.4,4.1.1,11.3,4.7,15.3a283.34,283.34,0,0,0,40.3,29.5c4,2.4,8.2,4.8,12.8,5,5.2.3,10.1-2.1,14.7-4.6a306.58,306.58,0,0,0,41.1-26.6c5.1-3.9,10.3-11.3,5.8-15.8a118,118,0,0,1,.27-166.88q2-2,4.13-3.92c4.6-4.2,10.1-9.5,8.6-15.6-.6-2.7-2.6-4.9-4.5-6.9q-27.6-29.4-57.7-56.1m131.3,60.2c-8.2,4.1-17.2,12.5-13.3,20.7,12.2,25.9,20.9,53.9,21.3,82.5s-7.9,57.9-26.6,79.6c-2.6,3-1.9,8,.5,11.2s6.2,5.1,9.9,6.9c5.4,2.7,10.9,5.5,16.9,6.1s12.7-1.3,16.1-6.3c26.5-39.1,25.8-89.9,24.1-137.1-.9-25.7-1.8-51.3-2.8-77a135.2,135.2,0,0,0-46.1,13.4M77.34,304.2c8.2-.7,16.7-1.7,23.3-6.5s10.1-14.8,5.1-21.3c-17.3-22.1-25.4-50.7-25.1-78.9s8.6-55.7,21.3-80.8c3.7-7.3-5.2-14.5-12.8-17.6a349.61,349.61,0,0,0-41-14.3c-2.3-.6-5.1-1-6.5.8-.9,1-.9,2.5-.9,3.9q0,62.85-.1,125.7c0,10.1,0,20.3,1.7,30.2,3.1,18,11.5,34.5,19.8,50.6,1.4,2.8,2.9,5.6,5.6,7.1,2.8,1.7,6.4,1.4,9.6,1.1m63.9-40.7c6.8,2.8,13.2-4.5,16.3-11.1,15.7-34.1,10.9-76.7-12-106.3-3-4-8-8.1-12.5-5.9-2.6,1.3-3.8,4.3-4.8,7-6.3,18.4-10.7,37.6-10.2,57s5.9,39,17.7,54.4c1.5,2,3.2,4,5.5,4.9m178.5,3.6c1.8-.6,3-2.1,4.2-3.5C338,245.7,343,222.1,343,199.2c0-18.8-3.5-38.6-15.8-52.8a7,7,0,0,0-2.7-2.2c-2.5-.7-4.9,1.4-6.6,3.4-21.4,25.5-29.1,62-19.7,93.9,2.5,8.6,6.3,17,13,22.8,2.4,2.1,5.6,3.8,8.5,2.8m48.2,78.4c.5-2.9-2.5-5-5.1-6.4-10.8-5.7-21.7-11.3-32.6-17a8.28,8.28,0,0,0-4-1.3,8.5,8.5,0,0,0-3.9,1.7,394.35,394.35,0,0,0-47.7,36.7c-.9.9-1.9,1.8-2.1,3-.4,2.2,1.8,3.9,3.7,5.1a143.36,143.36,0,0,0,31.9,13.9c5.9,1.8,12.4,3.2,18.2,1.1,3.7-1.3,6.8-3.9,9.8-6.5,10-8.6,19.9-17.6,29.4-26.7,1.1-1.1,2.2-2.2,2.4-3.6m-233.6-29.3c-3.4-.1-6.2,2.3-8.9,4.5a97.83,97.83,0,0,1-25.6,14.9c-1.9.8-2.7,3.2-2.2,5.2a12,12,0,0,0,3.2,5.1,245.52,245.52,0,0,0,21.6,21.8c4.8,4.3,10.1,8.5,16.4,9.8,6.5,1.4,13.3-.5,19.8-2.5,6-1.8,12.1-3.6,18.2-5.4,4.7-1.5,9.6-3,12.9-6.7,1.4-1.6,2.5-3.9,1.9-5.9s-2.2-3.2-3.7-4.3c-15.3-11-30.5-22-45.8-33.1-2.3-1.7-4.9-3.4-7.8-3.4m46.4,85.2c0,1.2,1,2.1,1.9,2.8a97.44,97.44,0,0,0,41.7,19c6.7,1.3,13.8,1.9,20.1-.6l33-13.2c2.5-1,5.4-2.6,5.4-5.2s-2.6-4.1-4.8-5.2a349.84,349.84,0,0,0-35.2-14.9,41.93,41.93,0,0,0-11.6-3c-6-.3-11.8,1.7-17.5,3.9-10.2,4-20.3,8.4-30.2,13.3-1.3.7-2.9,1.6-2.8,3.1" transform="translate(0)" fill="#068628"/>
</svg>
